HIERARCHY
ROOT joint_0
{
	OFFSET 0.000000 0.000000 0.000000
	CHANNELS 6 Xposition Yposition Zposition Zrotation Yrotation Xrotation 
	JOINT joint_1
	{
		OFFSET 1.363060 -1.794630 0.839290
		CHANNELS 3 Zrotation Yrotation Xrotation
		JOINT joint_2
		{
			OFFSET 2.448110 -6.726130 0.000000
			CHANNELS 3 Zrotation Yrotation Xrotation
			JOINT joint_3
			{
				OFFSET 2.562200 -7.039590 0.000000
				CHANNELS 3 Zrotation Yrotation Xrotation
				JOINT joint_4
				{
					OFFSET 0.157640 -0.433110 2.322550
					CHANNELS 3 Zrotation Yrotation Xrotation
					End Site
					{
						OFFSET 0.000000 0.000000 0.000000
					}
				}
			}
		}
	}
	JOINT joint_5
	{
		OFFSET -1.305520 -1.794630 0.839290
		CHANNELS 3 Zrotation Yrotation Xrotation
		JOINT joint_6
		{
			OFFSET -2.542530 -6.985550 0.000000
			CHANNELS 3 Zrotation Yrotation Xrotation
			JOINT joint_7
			{
				OFFSET -2.568260 -7.056230 0.000000
				CHANNELS 3 Zrotation Yrotation Xrotation
				JOINT joint_8
				{
					OFFSET -0.164730 -0.452590 2.363150
					CHANNELS 3 Zrotation Yrotation Xrotation
					End Site
					{
						OFFSET 0.000000 0.000000 0.000000
					}
				}
			}
		}
	}
	JOINT joint_9
	{
		OFFSET 0.028270 2.035590 -0.193380
		CHANNELS 3 Zrotation Yrotation Xrotation
		JOINT joint_10
		{
			OFFSET 0.056720 2.048850 -0.042750
			CHANNELS 3 Zrotation Yrotation Xrotation
			JOINT joint_11
			{
				OFFSET -0.054170 1.746240 0.172020
				CHANNELS 3 Zrotation Yrotation Xrotation
				JOINT joint_12
				{
					OFFSET 0.104070 1.761360 -0.123970
					CHANNELS 3 Zrotation Yrotation Xrotation
					End Site
					{
						OFFSET 0.000000 0.000000 0.000000
					}
				}
			}
			JOINT joint_13
			{
				OFFSET 3.362410 1.200890 -0.311210
				CHANNELS 3 Zrotation Yrotation Xrotation
				JOINT joint_14
				{
					OFFSET 4.983000 -0.000000 -0.000000
					CHANNELS 3 Zrotation Yrotation Xrotation
					JOINT joint_15
					{
						OFFSET 3.483560 -0.000000 -0.000000
						CHANNELS 3 Zrotation Yrotation Xrotation
						JOINT joint_16
						{
							OFFSET 0.000000 0.000000 0.000000
							CHANNELS 3 Zrotation Yrotation Xrotation
							End Site
							{
								OFFSET 0.000000 0.000000 0.000000
							}
						}
					}
				}
			}
			JOINT joint_17
			{
				OFFSET -3.136600 1.374050 -0.404650
				CHANNELS 3 Zrotation Yrotation Xrotation
				JOINT joint_18
				{
					OFFSET -5.241900 -0.000000 -0.000000
					CHANNELS 3 Zrotation Yrotation Xrotation
					JOINT joint_19
					{
						OFFSET -3.444170 -0.000000 -0.000000
						CHANNELS 3 Zrotation Yrotation Xrotation
						JOINT joint_20
						{
							OFFSET 0.000000 0.000000 0.000000
							CHANNELS 3 Zrotation Yrotation Xrotation
							End Site
							{
								OFFSET 0.000000 0.000000 0.000000
							}
						}
					}
				}
			}
		}
	}
}
MOTION
Frames: 12
Frame Time: 0.031667
0.383414 16.863363 -1.810240 -1.405944 0.763194 0.967095 -19.436807 4.345561 -6.914520 -0.364635 4.109696 9.510586 0.460251 2.291633 -0.806136 0.604187 0.667099 1.141225 22.258158 1.111695 -1.539678 -1.160290 -2.901934 6.433377 -0.970529 2.764087 -13.817580 -0.509028 1.466586 -3.489991 -0.907418 0.286725 -10.768113 1.732111 -0.536609 4.957921 2.695658 -1.743600 11.812024 1.563791 -0.574816 6.670127 -26.493240 -6.000144 0.837035 22.761537 -25.034626 -14.381410 1.575352 -1.368946 4.082153 -7.260377 -0.000225 0.007888 16.829075 5.943348 -10.781111 -26.619757 27.070957 -20.420103 0.603396 -0.886765 5.039545 7.025371 -0.024217 0.029222 
0.383318 16.859610 -1.817252 -1.379972 0.747692 0.969901 -20.629369 6.064057 -5.364057 0.140313 2.730327 6.809763 0.162516 2.343132 -1.430316 0.503670 0.651746 1.473303 23.607372 -0.547991 1.929152 -1.124415 -1.492058 2.692997 -0.931453 5.188551 -14.945492 -0.403977 2.053498 -5.200486 -1.040044 0.395943 -12.120971 2.382824 -0.619936 6.366960 1.873751 -1.770273 12.933458 1.628860 -0.662119 6.405910 -25.327123 -3.098654 2.001948 22.206955 -24.023535 -15.056156 2.110021 -1.653954 2.122076 -7.212273 -0.063728 0.068887 14.743532 4.279650 -9.871646 -28.849675 27.671292 -23.735285 0.661516 -1.129590 2.758622 7.104774 -0.076375 0.084277 
0.359751 16.856756 -1.922252 -1.278687 2.231196 1.264987 -21.241854 6.696883 -4.517864 0.335537 1.571951 4.203916 0.247334 3.468210 -1.993193 0.360331 -0.012444 -0.070437 24.450690 -0.920627 4.127007 -1.268752 -0.263255 -0.486642 -1.196665 5.822726 -15.345618 -0.334189 2.952521 -7.731505 -0.819305 0.353845 -13.331442 2.818007 -0.623179 8.573673 1.162755 -1.702531 14.389561 1.816722 -0.774582 6.584495 -23.966171 -3.230890 1.792939 21.234718 -22.485115 -15.446198 2.175058 -1.818764 0.860193 -7.167430 -0.116610 0.115644 14.046807 4.810517 -9.369843 -29.565834 27.219006 -25.644997 0.797184 -1.302102 1.299275 7.157057 -0.125728 0.131038 
0.356616 16.846096 -1.948889 -0.875224 1.924792 0.723241 -21.413334 6.584957 -3.618155 0.309563 0.919279 2.606610 -0.225258 5.185529 -2.552328 0.308013 -0.609768 -1.446491 24.623642 -1.259147 5.731802 -1.339786 0.557910 -1.823627 -1.223655 5.428494 -14.090359 -0.325464 3.064023 -8.059894 -0.669872 0.401666 -14.079209 3.446417 -0.921363 10.324539 0.665104 -1.406468 15.587616 1.834192 -0.779776 6.682923 -23.583028 -2.198374 1.982271 19.991589 -20.244794 -15.249638 2.721203 -2.090053 1.124176 -7.123301 -0.172968 0.167734 13.675775 4.287792 -8.601160 -29.492073 25.990813 -27.121153 0.991349 -1.386438 1.728033 7.212074 -0.187750 0.188692 
0.352688 16.855104 -1.909324 -1.206381 1.764283 0.913657 -21.507987 5.666344 -2.945292 0.667759 0.619558 2.149968 -0.675575 6.495951 -2.447874 0.323804 -1.076258 -2.443947 24.869265 -1.918383 6.625979 -1.338090 0.494756 -2.248269 -0.902824 4.034201 -11.705092 -0.351289 2.486157 -6.493900 -0.599025 0.249738 -15.520960 3.944409 -0.985594 11.283026 0.286168 -0.903955 16.640241 2.115152 -0.694782 6.570173 -22.691598 -1.615197 1.784516 19.134014 -17.856092 -14.923002 3.158003 -2.365412 1.508207 -7.076916 -0.238826 0.230868 13.447427 3.423044 -7.338522 -29.944431 24.425077 -27.936473 1.009154 -1.655309 2.483695 7.277862 -0.253948 0.254176 
0.353326 16.855556 -1.907733 -1.240121 1.724975 0.923689 -21.560028 5.270989 -2.650517 1.213128 0.189355 1.608086 -0.687765 7.023694 -2.748828 0.337811 -1.075957 -2.257094 25.255187 -2.620598 6.819557 -1.491024 0.407015 -1.841340 -0.860568 2.688928 -9.591157 -0.217220 1.138858 -2.810740 -0.053305 0.133198 -15.768871 4.580326 -0.846671 12.226732 0.244940 -0.592465 17.169079 2.510983 -0.767214 6.555987 -22.283125 -1.120597 1.434941 18.282411 -15.854742 -15.011812 3.107426 -2.710546 2.416533 -7.052599 -0.288479 0.275268 13.460156 2.847368 -6.423359 -29.794660 23.130146 -28.672924 1.068991 -1.760678 3.526492 7.326220 -0.294989 0.297331 
0.353497 16.856457 -1.906577 -1.280150 1.729442 0.936999 -22.763261 5.817346 -2.092434 1.460536 -0.112803 1.363859 -0.412901 5.816836 -2.977759 0.324185 -0.840257 -1.281053 25.547374 -3.606537 6.891893 -1.652994 -0.130447 -0.307681 -1.008332 1.758358 -7.219841 -0.026567 -0.398652 1.290900 0.336681 -0.228866 -16.033275 5.267310 -0.822087 13.085420 -0.050013 -0.629989 17.835162 3.086721 -0.857862 6.702597 -21.821091 -1.133040 1.350463 17.464404 -14.006276 -15.154090 3.764834 -3.077826 3.073162 -6.994837 -0.361005 0.344108 14.045742 1.974324 -4.945146 -30.017265 22.325438 -29.519324 1.247314 -1.887739 4.289454 7.398865 -0.368538 0.368684 
0.354524 16.854355 -1.908769 -1.262170 1.675628 0.897137 -22.821443 5.066253 -1.673261 1.003216 -0.441441 1.235472 -0.431042 4.885391 -2.911769 0.329662 -1.012754 -1.700185 25.739640 -3.771256 5.992350 -1.778293 -0.937756 1.863489 -0.588044 0.270154 -5.412648 0.153542 -0.939011 2.702501 0.854031 -0.238358 -15.228165 5.541292 -0.536037 13.084611 0.357890 -0.373629 18.087774 3.822573 -0.659457 6.715680 -21.133136 -1.244800 0.828461 17.436425 -13.274497 -15.366024 3.815705 -3.201303 3.051025 -6.985060 -0.360922 0.337601 12.987621 1.121532 -3.459424 -30.912393 21.878742 -30.614920 1.378552 -1.515575 4.272177 7.397993 -0.365466 0.361253 
0.355215 16.853754 -1.910480 -1.258266 1.650171 0.888190 -23.122224 4.801485 -2.758850 1.235936 -0.315132 1.482411 -0.110983 4.242414 -2.380896 0.545800 -1.181571 -2.048005 24.890258 -3.784824 4.952817 -2.302041 -1.262977 3.099933 -0.142490 -1.290152 -4.658442 0.221405 -0.829633 2.341568 1.305564 0.027119 -14.527716 5.421708 -0.403275 13.075943 0.132276 0.215032 17.956003 4.401903 -0.293116 6.441658 -21.212655 -1.587969 0.279319 17.501218 -12.796962 -15.766971 4.351942 -3.743018 2.774013 -6.963739 -0.360626 0.336001 12.083627 0.992420 -3.124755 -32.265685 22.479506 -31.801012 1.553860 -1.326421 4.820652 7.411791 -0.361923 0.355976 
0.354847 16.854204 -1.912898 -1.277922 1.673580 0.855423 -22.934909 4.690669 -3.175497 1.204155 -0.862876 1.295094 0.091109 2.337086 -1.725766 0.745620 -0.571249 -0.264773 24.567251 -3.814358 3.865925 -2.624235 -1.496579 4.054399 0.287109 -2.730084 -4.314903 0.185293 -1.163902 3.192903 1.681286 0.029604 -13.522675 5.374073 -0.352750 12.696311 0.212277 0.005953 17.772560 4.883702 -0.376462 6.187152 -21.309970 -2.139956 1.069940 17.676519 -12.608425 -15.783726 4.128290 -3.781680 1.757455 -6.956503 -0.363978 0.338724 12.448920 1.442019 -2.739410 -33.450002 23.081093 -32.531722 1.612810 -0.922004 4.556889 7.430599 -0.364571 0.357520 
0.355467 16.859909 -1.895105 -1.494062 1.709578 1.028775 -23.448216 5.117099 -3.538752 1.494105 -0.996195 1.202457 0.018908 0.635971 -0.556978 0.847656 0.460579 2.472312 25.068516 -3.882695 3.217438 -2.786198 -1.418369 4.101257 0.565637 -3.721082 -4.412614 0.007934 -2.077784 5.746212 2.042243 0.212103 -13.145957 5.314487 -0.203722 12.627528 0.414155 -0.207036 18.217438 5.211014 -0.605204 6.114546 -21.421751 -2.313564 0.796432 17.680180 -12.496306 -15.677503 4.392405 -3.837583 0.898162 -6.975619 -0.343608 0.317245 12.649992 1.427365 -2.424639 -33.228014 22.838140 -31.873625 1.462851 -0.656321 4.068032 7.402421 -0.345257 0.337396 
0.355698 16.858559 -1.896486 -1.490068 1.658553 0.979278 -22.659796 5.280634 -4.058829 1.706858 -1.073143 1.296800 0.001001 -0.585631 0.491145 0.844225 1.066799 4.194737 25.936937 -4.814340 2.867821 -2.798645 -1.458473 4.274687 0.434319 -4.309956 -4.775118 -0.068252 -2.818675 7.756360 2.449161 0.296348 -12.499290 5.025021 -0.085206 12.282660 0.583382 -0.757658 17.510241 5.675766 -0.949822 5.606108 -20.393400 -2.436226 1.105372 17.933173 -12.422815 -15.558712 4.329090 -3.546413 -0.031236 -6.969282 -0.351985 0.325463 13.197702 1.329991 -1.427667 -33.787865 23.340477 -31.582227 1.308195 -0.473810 3.929890 7.414519 -0.353960 0.345740 
